<svg width="228" height="58" viewBox="0 0 228 58" fill="none" xmlns="http://www.w3.org/2000/svg">
<path d="M135.355 47.9813C133.7 47.9813 132.386 47.4829 131.412 46.486C130.471 45.4559 130 44.027 130 42.1994V10.5483L134.479 10V42.0997C134.479 42.8307 134.593 43.3624 134.82 43.6947C135.079 44.027 135.501 44.1931 136.086 44.1931C136.702 44.1931 137.254 44.0935 137.741 43.8941L138.909 47.0841C137.838 47.6822 136.654 47.9813 135.355 47.9813Z" fill="#422D6D"/>
<path d="M164.229 41.2523C164.229 42.3157 164.408 43.1132 164.765 43.6449C165.122 44.1433 165.657 44.5254 166.371 44.7913L165.349 47.9813C164.018 47.8152 162.947 47.433 162.136 46.8349C161.324 46.2368 160.724 45.3063 160.335 44.0436C158.614 46.6687 156.067 47.9813 152.691 47.9813C150.159 47.9813 148.163 47.2503 146.703 45.7882C145.242 44.3261 144.512 42.4154 144.512 40.0561C144.512 37.2648 145.486 35.1215 147.433 33.6262C149.413 32.1308 152.204 31.3832 155.807 31.3832H159.75V29.4393C159.75 27.5784 159.312 26.2492 158.436 25.4517C157.56 24.6542 156.213 24.2555 154.395 24.2555C152.513 24.2555 150.208 24.7207 147.482 25.6511L146.362 22.3115C149.543 21.1153 152.496 20.5171 155.223 20.5171C158.241 20.5171 160.497 21.2814 161.99 22.81C163.483 24.3053 164.229 26.4486 164.229 29.2399V41.2523ZM153.713 44.5421C156.277 44.5421 158.29 43.1796 159.75 40.4548V34.4237H156.391C151.652 34.4237 149.283 36.2181 149.283 39.8069C149.283 41.3686 149.656 42.5483 150.403 43.3458C151.149 44.1433 152.253 44.5421 153.713 44.5421Z" fill="#422D6D"/>
<path d="M188.179 20.5171C190.516 20.5171 192.334 21.2316 193.632 22.6604C194.963 24.0893 195.628 26.0498 195.628 28.5421V47.3832H191.149V29.19C191.149 27.3292 190.808 26.0166 190.127 25.2523C189.445 24.4881 188.439 24.1059 187.108 24.1059C185.745 24.1059 184.544 24.5047 183.506 25.3022C182.467 26.0997 181.493 27.2461 180.585 28.7414V47.3832H176.106V21.1153H179.952L180.341 25.0031C181.25 23.6075 182.37 22.5109 183.7 21.7134C185.063 20.9159 186.556 20.5171 188.179 20.5171Z" fill="#422D6D"/>
<path d="M228 22.3115C227.026 22.6438 225.955 22.8598 224.787 22.9595C223.618 23.0592 222.19 23.109 220.503 23.109C223.521 24.5047 225.03 26.7144 225.03 29.7383C225.03 32.3634 224.154 34.5068 222.401 36.1682C220.649 37.8297 218.263 38.6604 215.245 38.6604C214.076 38.6604 212.989 38.4943 211.983 38.162C211.593 38.4278 211.285 38.7934 211.058 39.2586C210.831 39.6906 210.717 40.1392 210.717 40.6044C210.717 42.0332 211.837 42.7477 214.076 42.7477H218.166C219.886 42.7477 221.411 43.0633 222.742 43.6947C224.073 44.3261 225.095 45.19 225.809 46.2866C226.556 47.3832 226.929 48.6293 226.929 50.0249C226.929 52.5836 225.907 54.5441 223.862 55.9065C221.817 57.3022 218.831 58 214.904 58C212.145 58 209.954 57.7009 208.332 57.1028C206.741 56.5379 205.605 55.6739 204.924 54.5109C204.242 53.3479 203.901 51.8525 203.901 50.0249H207.942C207.942 51.0883 208.137 51.919 208.526 52.5171C208.916 53.1485 209.614 53.6137 210.62 53.9128C211.626 54.2451 213.054 54.4112 214.904 54.4112C217.598 54.4112 219.513 54.0623 220.649 53.3645C221.817 52.6999 222.401 51.6864 222.401 50.324C222.401 49.0945 221.947 48.1641 221.038 47.5327C220.129 46.9014 218.864 46.5857 217.241 46.5857H213.2C211.025 46.5857 209.37 46.1205 208.234 45.19C207.131 44.2264 206.579 43.0301 206.579 41.6012C206.579 40.7373 206.822 39.9065 207.309 39.109C207.796 38.3115 208.494 37.5971 209.403 36.9657C207.91 36.1682 206.806 35.188 206.092 34.0249C205.41 32.8287 205.07 31.3832 205.07 29.6885C205.07 27.9273 205.492 26.3489 206.335 24.9533C207.212 23.5576 208.396 22.4777 209.889 21.7134C211.415 20.9159 213.103 20.5171 214.953 20.5171C216.965 20.5504 218.653 20.4839 220.016 20.3178C221.379 20.1184 222.499 19.8692 223.375 19.5701C224.284 19.2378 225.387 18.7726 226.686 18.1745L228 22.3115ZM214.953 23.8069C213.265 23.8069 211.95 24.3551 211.009 25.4517C210.1 26.5151 209.646 27.9273 209.646 29.6885C209.646 31.4829 210.117 32.9283 211.058 34.0249C211.999 35.0883 213.33 35.6199 215.05 35.6199C216.803 35.6199 218.133 35.1049 219.042 34.0748C219.983 33.0114 220.454 31.5327 220.454 29.6386C220.454 25.7508 218.62 23.8069 214.953 23.8069Z" fill="#422D6D"/>
<path d="M11.6862 33.2053H7.14158V48.1886H0V10.8114H11.1452C21.028 10.8114 25.9694 14.4716 25.9694 21.792C25.9694 24.2802 25.3562 26.3356 24.1299 27.9584C22.9035 29.5811 20.9919 30.8974 18.395 31.9071L28.1876 48.1886H19.964L11.6862 33.2053ZM7.14158 28.0666H11.578C13.8503 28.0666 15.5636 27.5798 16.7178 26.6061C17.908 25.5964 18.5032 23.9917 18.5032 21.792C18.5032 19.7725 17.89 18.3121 16.6637 17.4105C15.4734 16.473 13.5798 16.0042 10.9829 16.0042H7.14158V28.0666Z" fill="#422D6D"/>
<path d="M45.5825 10C48.2155 10 50.5059 10.3786 52.4536 11.1359C54.4013 11.8932 56.2227 13.0472 57.9179 14.5978L54.4013 18.6546C53.0667 17.5368 51.7141 16.7254 50.3435 16.2205C49.009 15.7157 47.5663 15.4632 46.0153 15.4632C44.284 15.4632 42.8774 15.8599 41.7953 16.6533C40.7493 17.4105 40.2263 18.4924 40.2263 19.8988C40.2263 20.8363 40.4247 21.6117 40.8214 22.2247C41.2543 22.8377 42.0117 23.4147 43.0938 23.9556C44.1758 24.4965 45.7809 25.0915 47.9089 25.7406C51.5879 26.8946 54.3472 28.337 56.1867 30.068C58.0622 31.7628 59 34.251 59 37.5326C59 39.7684 58.4229 41.7517 57.2687 43.4827C56.1506 45.2136 54.5275 46.5659 52.3995 47.5395C50.2714 48.5132 47.7466 49 44.8251 49C41.9756 49 39.4148 48.5492 37.1425 47.6477C34.9062 46.7101 32.9765 45.448 31.3534 43.8613L35.0324 39.7503C36.4752 40.9764 37.972 41.914 39.523 42.5631C41.0739 43.1761 42.7872 43.4827 44.6627 43.4827C46.7187 43.4827 48.3778 42.9958 49.6402 42.0222C50.9026 41.0485 51.5338 39.6782 51.5338 37.9112C51.5338 36.8294 51.3174 35.9459 50.8846 35.2607C50.4518 34.5395 49.7123 33.9085 48.6664 33.3675C47.6204 32.7906 46.1055 32.1956 44.1217 31.5825C40.1542 30.3564 37.2867 28.8779 35.5194 27.147C33.752 25.4161 32.8683 23.1442 32.8683 20.3315C32.8683 18.276 33.4094 16.473 34.4914 14.9223C35.5735 13.3717 37.0703 12.1637 38.9819 11.2982C40.9297 10.4327 43.1298 10 45.5825 10Z" fill="#422D6D"/>
<path d="M93.5835 10C94.57 10 95.4835 10.4297 96.166 11.148C96.73 11.7514 97.1143 12.5113 97.2724 13.3362C97.2724 13.3362 97.3849 14.5799 97.5296 16.0741H94.6694C94.3011 16.0741 94 16.4142 94 16.8333C94 17.2524 94.3011 17.5926 94.6694 17.5926H97.6802C97.7313 18.1195 97.7854 18.6404 97.8351 19.1111H94.6694C94.3011 19.1111 94 19.4513 94 19.8704C94 20.2895 94.3011 20.6296 94.6694 20.6296H98.0105C98.237 22.0601 100.463 23.3037 101.229 23.732L101.384 23.8185C101.727 24.0205 102.332 24.2376 103.079 24.5064C106.122 25.5997 111.538 27.545 111.538 32.7778V36.1307C111.538 36.4845 111.465 36.8216 111.348 37.1299C110.971 38.1047 110.064 38.8382 109.01 38.8519H111.597C112.372 38.8519 113 39.5337 113 40.3704C113 41.2071 112.372 41.8889 111.597 41.8889H108.542C109.268 42.6278 109.766 43.5746 109.972 44.6085C110.177 45.6424 110.082 46.7165 109.698 47.694C109.314 48.6715 108.659 49.5079 107.815 50.0967C106.972 50.6855 105.978 51 104.962 51C103.946 51 102.953 50.6855 102.109 50.0967C101.266 49.5079 100.61 48.6715 100.226 47.694C99.8423 46.7165 99.7471 45.6424 99.953 44.6085C100.159 43.5746 100.656 42.6278 101.382 41.8889H86.6163C87.3421 42.6278 87.8397 43.5746 88.0456 44.6085C88.2514 45.6424 88.1563 46.7165 87.7722 47.694C87.3881 48.6715 86.7325 49.5079 85.8891 50.0967C85.0456 50.6855 84.0524 51 83.0363 51C82.0201 51 81.027 50.6855 80.1835 50.0967C79.34 49.5079 78.6844 48.6715 78.3003 47.694C77.9163 46.7165 77.8211 45.6424 78.027 44.6085C78.2328 43.5746 78.7304 42.6278 79.4562 41.8889H76.4031C75.6285 41.8889 75 41.2071 75 40.3704C75 39.5337 75.6285 38.8519 76.4031 38.8519H77.5928C77.0721 38.8491 76.5643 38.6832 76.1356 38.3761C75.707 38.0689 75.3775 37.6346 75.19 37.1299C75.0667 36.8122 75.0022 36.4732 75 36.1307V13.1889C75 11.5489 76.4776 10.2323 78.3908 10.0425C78.4551 10.0425 78.5165 10.0349 78.5793 10.0273C78.6413 10.0184 78.7038 10.0133 78.7664 10.0121V10H93.5835ZM78.7868 11.5337L78.7445 11.5383H78.7342C78.6503 11.5493 78.5659 11.5569 78.4814 11.561C77.0491 11.722 76.4615 12.6225 76.4615 13.1889V14.5556H84.0118C84.443 14.5556 84.7865 14.4098 84.994 14.2367C85.2015 14.0651 85.2308 13.9178 85.2308 13.8494V11.5185H80.2279V11.5337H78.7868ZM108.978 37.3333C109.381 37.3333 109.805 37.0418 109.991 36.5665C110.045 36.4281 110.075 36.2803 110.077 36.1307V34.2963H76.4615V36.1307C76.4615 36.2658 76.4908 36.4146 76.5492 36.571L76.5551 36.5862C76.7158 37.0251 77.1222 37.3333 77.6337 37.3333H108.978ZM85.2308 45.6852C85.2308 45.0811 84.9998 44.5017 84.5887 44.0746C84.1775 43.6474 83.6199 43.4074 83.0385 43.4074C82.457 43.4074 81.8994 43.6474 81.4883 44.0746C81.0771 44.5017 80.8462 45.0811 80.8462 45.6852C80.8462 46.2893 81.0771 46.8687 81.4883 47.2958C81.8994 47.723 82.457 47.963 83.0385 47.963C83.6199 47.963 84.1775 47.723 84.5887 47.2958C84.9998 46.8687 85.2308 46.2893 85.2308 45.6852V45.6852ZM104.962 47.963C105.543 47.963 106.101 47.723 106.512 47.2958C106.923 46.8687 107.154 46.2893 107.154 45.6852C107.154 45.0811 106.923 44.5017 106.512 44.0746C106.101 43.6474 105.543 43.4074 104.962 43.4074C104.38 43.4074 103.822 43.6474 103.411 44.0746C103 44.5017 102.769 45.0811 102.769 45.6852C102.769 46.2893 103 46.8687 103.411 47.2958C103.822 47.723 104.38 47.963 104.962 47.963V47.963Z" fill="#FCFCFC"/>
</svg>
