<svg width="154" height="57" viewBox="0 0 154 57" fill="none" xmlns="http://www.w3.org/2000/svg">
<g clip-path="url(#clip0_34_280)">
<path d="M36.47 46.2792L43.202 48.3333C42.8404 50.0498 42.0893 51.6818 41.06 53.1169C40.1142 54.3831 38.8624 55.368 37.4436 56.0152C35.9971 56.6623 34.1611 57 31.9356 57C29.2372 57 27.0117 56.6061 25.3148 55.8182C23.59 55.0303 22.1157 53.6234 20.8638 51.6255C19.612 49.6277 19 47.0671 19 43.9437C19 39.7792 20.0849 36.5714 22.2826 34.3485C24.4802 32.1255 27.5681 31 31.5739 31C34.7174 31 37.1654 31.6472 38.9736 32.9134C40.754 34.2078 42.0893 36.1775 42.9795 38.8225L36.1918 40.342C36.0249 39.7511 35.7745 39.1602 35.4407 38.6537C35.0234 38.0628 34.4949 37.6126 33.8551 37.2749C33.2152 36.9372 32.4919 36.7965 31.7687 36.7965C30.0161 36.7965 28.6808 37.5 27.7628 38.9351C27.0673 39.9762 26.7057 41.6364 26.7057 43.8874C26.7057 46.6732 27.123 48.5866 27.9575 49.6277C28.7921 50.6688 29.9605 51.1753 31.4905 51.1753C32.9649 51.1753 34.0776 50.7532 34.8287 49.9372C35.5798 49.0649 36.1362 47.855 36.47 46.2792ZM52.1874 31.4221H59.8653V40.2294H68.2665V31.4221H76V56.5779H68.2665V46.3918H59.8653V56.5779H52.1874V31.4221Z" fill="white"/>
<path d="M134.028 32H141.825V50.8479H154V57H134V32H134.028Z" fill="white"/>
<path d="M126.349 30.6363C134.054 24.8013 136.405 14.8772 131.601 8.4703C126.796 2.06337 116.656 1.59974 108.951 7.43476C101.246 13.2698 98.8947 23.1938 103.699 29.6008C108.503 36.0077 118.644 36.4713 126.349 30.6363Z" stroke="white" stroke-width="4" stroke-miterlimit="10"/>
<path d="M109.271 17.2052L111.977 15.2503L115.306 20.1376C115.875 20.9195 116.308 21.7574 116.633 22.679C116.822 23.3771 116.768 24.1312 116.497 24.8014C116.145 25.6392 115.577 26.3374 114.819 26.8401C113.926 27.4824 113.168 27.8455 112.519 27.9572C111.896 28.0689 111.246 27.9572 110.651 27.6779C110.001 27.3428 109.433 26.868 109 26.2536L111.328 24.0195C111.517 24.3267 111.761 24.6059 112.031 24.8293C112.221 24.969 112.437 25.0528 112.681 25.0528C112.87 25.0528 113.06 24.969 113.195 24.8573C113.466 24.6897 113.655 24.3546 113.628 24.0195C113.547 23.5447 113.358 23.0699 113.06 22.7069L109.271 17.2052ZM117.39 20.3051L119.853 18.2944C120.124 18.6295 120.476 18.8809 120.855 19.0205C121.396 19.1881 121.965 19.0763 122.425 18.7133C122.75 18.4899 123.02 18.1827 123.128 17.7917C123.291 17.289 123.02 16.7305 122.533 16.5629C122.452 16.535 122.371 16.507 122.289 16.507C121.965 16.4791 121.396 16.6187 120.557 16.9818C119.177 17.5683 118.094 17.7917 117.282 17.7079C116.497 17.6241 115.766 17.2052 115.333 16.507C115.009 16.0323 114.846 15.4737 114.819 14.9152C114.819 14.2729 114.982 13.6305 115.333 13.0999C115.848 12.3459 116.47 11.7036 117.228 11.2009C118.365 10.391 119.366 10 120.232 10C121.099 10 121.91 10.4189 122.668 11.2847L120.232 13.2675C119.745 12.6252 118.825 12.4855 118.202 12.9882L118.121 13.072C117.851 13.2396 117.661 13.4909 117.553 13.7981C117.472 14.0215 117.526 14.2729 117.661 14.4684C117.769 14.608 117.932 14.7197 118.121 14.7197C118.338 14.7476 118.717 14.6359 119.258 14.3846C120.611 13.7981 121.64 13.463 122.344 13.3513C122.939 13.2396 123.562 13.2954 124.13 13.5468C124.644 13.7702 125.077 14.1612 125.375 14.6359C125.754 15.1945 125.97 15.8647 125.997 16.5629C126.025 17.289 125.835 17.9872 125.456 18.6016C124.969 19.3556 124.346 19.9979 123.616 20.5006C122.127 21.5619 120.909 22.0087 119.935 21.8411C118.879 21.6736 118.013 21.115 117.39 20.3051Z" fill="white"/>
<path fill-rule="evenodd" clip-rule="evenodd" d="M112.143 34.0721C115.735 34.2982 119.634 33.3159 123.166 31.0962C126.321 31.4119 128.824 32.5041 130.659 34.373C132.868 36.6216 134 39.7697 134 43.8173C134 46.7686 133.503 49.1578 132.537 51.0411C131.598 52.8962 130.135 54.4141 128.34 55.4259C126.49 56.4659 124.199 57 121.466 57C118.677 57 116.386 56.5503 114.563 55.6508C112.686 54.6951 111.14 53.2054 110.118 51.3784C108.986 49.4108 108.407 46.9654 108.407 44.0141C108.407 39.9103 109.539 36.7059 111.775 34.4292C111.895 34.3069 112.018 34.1879 112.143 34.0721ZM117.407 49.5232C116.496 48.3989 116.027 46.5719 116.027 44.0422C116.027 41.4843 116.496 39.6573 117.435 38.5611C118.346 37.4649 119.726 36.8465 121.134 36.9027C122.736 36.9027 124.006 37.4368 124.944 38.533C125.883 39.6011 126.352 41.3438 126.352 43.7049C126.352 46.5157 125.911 48.4551 125 49.5514C124.088 50.6476 122.818 51.1816 121.19 51.1816C119.588 51.1816 118.318 50.6195 117.407 49.5232Z" fill="white"/>
<path fill-rule="evenodd" clip-rule="evenodd" d="M78.3683 34.4292C76.132 36.7059 75 39.9103 75 44.0141C75 46.9654 75.5798 49.4108 76.7117 51.3784C77.7333 53.2054 79.2794 54.6951 81.1568 55.6508C82.9789 56.5503 85.2705 57 88.059 57C90.7922 57 93.0838 56.4659 94.9336 55.4259C96.7281 54.4141 98.1914 52.8962 99.1301 51.0411C100.096 49.1578 100.593 46.7686 100.593 43.8173C100.593 39.7697 99.489 36.6216 97.2527 34.373C95.0164 32.1243 91.869 31 87.7553 31C83.752 31 80.6046 32.1524 78.3683 34.4292ZM84.0005 49.5232C83.0894 48.3989 82.62 46.5719 82.62 44.0422C82.62 41.4843 83.0894 39.6573 84.0281 38.5611C84.9668 37.4649 86.3196 36.8465 87.7277 36.9027C89.329 36.9027 90.599 37.4368 91.5377 38.533C92.4764 39.6011 92.9457 41.3438 92.9457 43.7049C92.9457 46.5157 92.504 48.4551 91.5929 49.5514C90.6818 50.6476 89.4118 51.1816 87.7829 51.1816C86.1816 51.1816 84.9116 50.6195 84.0005 49.5232Z" fill="white"/>
<path d="M86.2694 18.5166L78.9904 18.9869C79.1841 21.4769 80.1528 23.5241 81.7858 25.1564C83.4187 26.7887 86.3248 27.591 90.5317 27.591C92.9119 27.591 94.9047 27.2314 96.4823 26.5397C97.9485 25.9155 99.2017 24.8918 100.111 23.5732C99.8092 21.2371 100.123 18.7678 101 16.3777C100.867 16.0469 100.708 15.726 100.523 15.418C99.8866 14.339 98.8348 13.4261 97.3679 12.6791C95.9011 11.9321 93.5208 11.2128 90.1719 10.4935C88.8157 10.2168 87.9577 9.91247 87.5979 9.58048C87.2658 9.33149 87.0444 8.94417 87.0444 8.52918C87.0167 7.97586 87.2935 7.47787 87.7086 7.14588C88.1515 6.78622 88.8157 6.59256 89.7014 6.59256C90.7808 6.59256 91.6111 6.84155 92.2477 7.3672C92.8843 7.89286 93.2717 8.69517 93.4655 9.80181L100.662 9.38682C100.357 6.81388 99.3607 4.9326 97.7001 3.77062C96.0394 2.58099 93.6315 2 90.4764 2C87.9024 2 85.8543 2.33199 84.3874 2.96831C83.0312 3.49396 81.8965 4.43461 81.0661 5.62425C80.3465 6.67555 79.9591 7.94819 79.9591 9.22082C79.9037 11.0744 80.7064 12.8174 82.1179 14.007C83.5294 15.2797 85.9373 16.2757 89.2862 17.0226C91.3343 17.4653 92.6352 17.9633 93.1887 18.4613C93.7146 18.8763 94.019 19.5126 94.019 20.1766C94.019 20.8682 93.6869 21.5322 93.1334 21.9472C92.5521 22.4728 91.6941 22.7218 90.6147 22.7218C89.1479 22.7218 88.0408 22.2238 87.2381 21.2279C86.74 20.5915 86.4355 19.7062 86.2694 18.5166Z" fill="white"/>
<path fill-rule="evenodd" clip-rule="evenodd" d="M1.74366 2.44266V27.1484H9.4102V17.1056H10.0745C10.7387 17.1056 11.403 17.2993 11.9565 17.6866C12.3717 17.9909 12.8145 18.6273 13.3404 19.5956L17.4366 27.2037H26.1272L22.4184 20.0382C22.114 19.4849 21.7542 18.9593 21.339 18.4889C20.9792 18.0186 20.5917 17.576 20.1212 17.1886C19.5123 16.8013 18.8204 16.4693 18.1285 16.2757C19.0695 16.1097 19.9828 15.7777 20.8132 15.3073C22.9443 14.09 24.1898 11.7661 24.1067 9.33149C24.1344 7.89286 23.7469 6.50956 22.9443 5.31992C22.2247 4.24095 21.1453 3.43863 19.9275 3.05131C18.682 2.63632 16.8553 2.44266 14.5028 2.44266H1.74366ZM12.6484 12.4577H9.4102V7.4502H12.7868C14.1707 7.4502 15.1394 7.67153 15.6375 8.08652C16.5509 8.94417 16.6616 10.3551 15.9143 11.3511C15.6099 11.7661 15.167 12.0428 14.6688 12.1258C14.0046 12.2918 13.3404 12.4024 12.6484 12.4577Z" fill="white"/>
<path d="M7.27907 47.8979L0 48.3682C0.221417 50.8581 1.13476 52.9054 2.76771 54.5654C4.40065 56.1977 7.30675 57 11.5137 57C13.8939 57 15.8866 56.6403 17.4642 55.9487C18.9588 55.3124 20.2319 54.2611 21.1453 52.9054C22.0033 51.6051 22.4738 50.0835 22.4738 48.5342C22.4738 47.2616 22.1417 45.9889 21.4774 44.8823C20.8408 43.8033 19.7891 42.8903 18.3222 42.1434C16.8553 41.3964 14.4751 40.6771 11.1262 39.9577C9.77001 39.6811 8.91202 39.3768 8.55222 39.0448C8.22009 38.7958 7.99867 38.4084 7.99867 37.9935C7.971 37.4401 8.22009 36.9422 8.66292 36.6102C9.10576 36.2228 9.77001 36.0292 10.6557 36.0292C11.7351 36.0015 12.5931 36.2505 13.202 36.7762C13.8385 37.3018 14.226 38.1041 14.4198 39.2108L21.6158 38.7958C21.3113 36.2228 20.3426 34.3692 18.682 33.1796C17.0214 31.9899 14.6135 31.409 11.4583 31.409C8.88434 31.409 6.83624 31.7409 5.36935 32.3773C4.01318 32.9029 2.87842 33.8436 2.0481 35.0332C1.3285 36.0845 0.941021 37.3571 0.941021 38.6298C0.885666 40.4834 1.6883 42.2264 3.09983 43.416C4.51136 44.6886 6.91927 45.6846 10.2682 46.4316C12.344 46.8742 13.6448 47.3722 14.1983 47.8702C14.7242 48.2852 15.0287 48.9215 15.0287 49.5855C15.0287 50.2772 14.6965 50.9135 14.143 51.3561C13.5618 51.8818 12.7038 52.1308 11.6244 52.1308C10.1575 52.1308 9.02273 51.6051 8.24777 50.6092C7.74958 49.9728 7.44513 49.0875 7.27907 47.8979Z" fill="white"/>
</g>
<defs>
<clipPath id="clip0_34_280">
<rect width="154" height="57" fill="white"/>
</clipPath>
</defs>
</svg>
